<svg width="24" height="24" viewBox="0 0 24 24" fill="none" xmlns="http://www.w3.org/2000/svg">
<path fill-rule="evenodd" clip-rule="evenodd" d="M12.7064 15.707C12.5188 15.8944 12.2645 15.9998 11.9994 15.9998C11.7342 15.9998 11.4799 15.8944 11.2924 15.707L5.63537 10.05C5.53986 9.95773 5.46367 9.84739 5.41126 9.72538C5.35886 9.60338 5.33127 9.47216 5.33012 9.33938C5.32896 9.2066 5.35426 9.07492 5.40454 8.95202C5.45483 8.82913 5.52908 8.71747 5.62297 8.62358C5.71686 8.52969 5.82852 8.45544 5.95141 8.40515C6.07431 8.35487 6.20599 8.32957 6.33877 8.33073C6.47155 8.33188 6.60277 8.35947 6.72477 8.41188C6.84677 8.46428 6.95712 8.54047 7.04937 8.63598L11.9994 13.586L16.9494 8.63598C17.138 8.45382 17.3906 8.35302 17.6528 8.3553C17.915 8.35758 18.1658 8.46275 18.3512 8.64816C18.5366 8.83357 18.6418 9.08438 18.644 9.34658C18.6463 9.60877 18.5455 9.86137 18.3634 10.05L12.7064 15.707Z" fill="white"/>
</svg>
