<svg width="24" height="24" viewBox="0 0 24 24" fill="none" xmlns="http://www.w3.org/2000/svg">
<path fill-rule="evenodd" clip-rule="evenodd" d="M11.2932 8.29303C11.4807 8.10556 11.735 8.00024 12.0002 8.00024C12.2653 8.00024 12.5197 8.10556 12.7072 8.29303L18.3642 13.95C18.5463 14.1386 18.6471 14.3912 18.6449 14.6534C18.6426 14.9156 18.5374 15.1664 18.352 15.3518C18.1666 15.5373 17.9158 15.6424 17.6536 15.6447C17.3914 15.647 17.1388 15.5462 16.9502 15.364L12.0002 10.414L7.05018 15.364C6.86158 15.5462 6.60898 15.647 6.34678 15.6447C6.08458 15.6424 5.83377 15.5373 5.64836 15.3518C5.46295 15.1664 5.35778 14.9156 5.35551 14.6534C5.35323 14.3912 5.45402 14.1386 5.63618 13.95L11.2932 8.29303Z" fill="white"/>
</svg>
